<svg width="186" height="62" viewBox="0 0 73 31" fill="none" xmlns="http://www.w3.org/2000/svg">
<path d="M0.329545 24.0341V21.1364L13.1136 0.90909H15.2159V5.39773H13.7955L4.13636 20.6818V20.9091H21.3523V24.0341H0.329545ZM14.0227 30V23.1534V21.804V0.90909H17.375V30H14.0227ZM36.1641 30.3977C34.0239 30.3977 32.201 29.8153 30.6953 28.6506C29.1896 27.4763 28.0391 25.7765 27.2436 23.5511C26.4482 21.3163 26.0504 18.6174 26.0504 15.4545C26.0504 12.3106 26.4482 9.62595 27.2436 7.40057C28.0485 5.16572 29.2038 3.46117 30.7095 2.28693C32.2247 1.10322 34.0429 0.511363 36.1641 0.511363C38.2853 0.511363 40.0987 1.10322 41.6044 2.28693C43.1196 3.46117 44.2749 5.16572 45.0703 7.40057C45.8752 9.62595 46.2777 12.3106 46.2777 15.4545C46.2777 18.6174 45.88 21.3163 45.0845 23.5511C44.2891 25.7765 43.1385 27.4763 41.6328 28.6506C40.1271 29.8153 38.3042 30.3977 36.1641 30.3977ZM36.1641 27.2727C38.2853 27.2727 39.933 26.25 41.1072 24.2045C42.2815 22.1591 42.8686 19.2424 42.8686 15.4545C42.8686 12.9356 42.5987 10.7907 42.0589 9.01989C41.5286 7.24905 40.7616 5.89962 39.7578 4.97159C38.7635 4.04356 37.5656 3.57955 36.1641 3.57955C34.0618 3.57955 32.4188 4.61648 31.2351 6.69034C30.0514 8.75473 29.4595 11.6761 29.4595 15.4545C29.4595 17.9735 29.7247 20.1136 30.255 21.875C30.7853 23.6364 31.5476 24.9763 32.5419 25.8949C33.5457 26.8134 34.7531 27.2727 36.1641 27.2727ZM50.9936 24.0341V21.1364L63.7777 0.90909H65.88V5.39773H64.4595L54.8004 20.6818V20.9091H72.0163V24.0341H50.9936ZM64.6868 30V23.1534V21.804V0.90909H68.0391V30H64.6868Z" fill="black"/>
</svg>
