<svg viewBox="0 0 24 24" fill="#222F3D">
<path d="M5.83333 6.71875V7.65625H6.875V6.71875H5.83333ZM13.125 6.71875V7.65625H14.1667V6.71875H13.125ZM5.83333 8.59375V9.53125H6.875V8.59375H5.83333ZM13.125 8.59375V9.53125H14.1667V8.59375H13.125ZM5.83333 10.4688V11.4063H6.875V10.4688H5.83333ZM13.125 10.4688V11.4063H14.1667V10.4688H13.125ZM5.83333 12.3438V13.2813H6.875V12.3438H5.83333ZM13.125 12.3438V13.2813H14.1667V12.3438H13.125Z" fill="black"/>
<path d="M3.22917 4.79167C2.81477 4.79167 2.41734 4.95629 2.12431 5.24931C1.83129 5.54234 1.66667 5.93977 1.66667 6.35417L1.66667 7.91667C1.66667 8.0548 1.72154 8.18728 1.81921 8.28495C1.91689 8.38263 2.04937 8.4375 2.1875 8.4375C2.6019 8.4375 2.99933 8.60212 3.29235 8.89515C3.58538 9.18817 3.75 9.5856 3.75 10C3.75 10.4144 3.58538 10.8118 3.29235 11.1049C2.99933 11.3979 2.6019 11.5625 2.1875 11.5625C2.04937 11.5625 1.91689 11.6174 1.81921 11.715C1.72154 11.8127 1.66667 11.9452 1.66667 12.0833L1.66667 13.6458C1.66667 14.0602 1.83129 14.4577 2.12431 14.7507C2.41734 15.0437 2.81477 15.2083 3.22917 15.2083H16.7708C17.1852 15.2083 17.5827 15.0437 17.8757 14.7507C18.1687 14.4577 18.3333 14.0602 18.3333 13.6458V12.0833C18.3333 11.9452 18.2785 11.8127 18.1808 11.715C18.0831 11.6174 17.9506 11.5625 17.8125 11.5625C17.3981 11.5625 17.0007 11.3979 16.7076 11.1049C16.4146 10.8118 16.25 10.4144 16.25 10C16.25 9.5856 16.4146 9.18817 16.7076 8.89515C17.0007 8.60212 17.3981 8.4375 17.8125 8.4375C17.9506 8.4375 18.0831 8.38263 18.1808 8.28495C18.2785 8.18728 18.3333 8.0548 18.3333 7.91667V6.35417C18.3333 5.93977 18.1687 5.54234 17.8757 5.24931C17.5827 4.95629 17.1852 4.79167 16.7708 4.79167H3.22917ZM2.70833 6.35417C2.70833 6.21603 2.76321 6.08356 2.86088 5.98588C2.95856 5.88821 3.09103 5.83333 3.22917 5.83333H16.7708C16.909 5.83333 17.0414 5.88821 17.1391 5.98588C17.2368 6.08356 17.2917 6.21603 17.2917 6.35417V7.44792C16.703 7.56746 16.1737 7.88684 15.7936 8.35195C15.4134 8.81706 15.2057 9.39929 15.2057 10C15.2057 10.6007 15.4134 11.1829 15.7936 11.6481C16.1737 12.1132 16.703 12.4325 17.2917 12.5521V13.6458C17.2917 13.784 17.2368 13.9164 17.1391 14.0141C17.0414 14.1118 16.909 14.1667 16.7708 14.1667H3.22917C3.09103 14.1667 2.95856 14.1118 2.86088 14.0141C2.76321 13.9164 2.70833 13.784 2.70833 13.6458V12.5521C3.29702 12.4325 3.82629 12.1132 4.20645 11.6481C4.5866 11.1829 4.79428 10.6007 4.79428 10C4.79428 9.39929 4.5866 8.81706 4.20645 8.35195C3.82629 7.88684 3.29702 7.56746 2.70833 7.44792V6.35417Z" fill="black"/>
</svg>
