<svg viewBox="0 0 24 24" fill="#222F3D">
<path d="M10 2.01617C8.80071 2.01617 7.87555 2.63021 7.28276 3.44538C6.875 4.00665 6.61116 4.66146 6.4878 5.30565H7.12171C7.23821 4.78481 7.46094 4.2513 7.78303 3.80791C8.28673 3.11541 9.0063 2.63295 10 2.63295C10.9937 2.63295 11.7133 3.11541 12.217 3.80791C12.5391 4.2513 12.7618 4.78481 12.8783 5.30565H13.5122C13.3888 4.66146 13.125 4.00665 12.7172 3.44538C12.1245 2.63021 11.1993 2.01617 10 2.01617ZM4.25199 5.92242L3.20895 17.9153H16.7914L15.7497 5.92242H4.25199ZM6.71053 6.71053C6.85593 6.71053 6.99538 6.76829 7.09819 6.8711C7.20101 6.97392 7.25877 7.11337 7.25877 7.25877C7.25877 7.40418 7.20101 7.54362 7.09819 7.64644C6.99538 7.74926 6.85593 7.80702 6.71053 7.80702C6.56512 7.80702 6.42567 7.74926 6.32286 7.64644C6.22004 7.54362 6.16228 7.40418 6.16228 7.25877C6.16228 7.11337 6.22004 6.97392 6.32286 6.8711C6.42567 6.76829 6.56512 6.71053 6.71053 6.71053ZM13.2895 6.71053C13.4349 6.71053 13.5743 6.76829 13.6771 6.8711C13.78 6.97392 13.8377 7.11337 13.8377 7.25877C13.8377 7.40418 13.78 7.54362 13.6771 7.64644C13.5743 7.74926 13.4349 7.80702 13.2895 7.80702C13.1441 7.80702 13.0046 7.74926 12.9018 7.64644C12.799 7.54362 12.7412 7.40418 12.7412 7.25877C12.7412 7.11337 12.799 6.97392 12.9018 6.8711C13.0046 6.76829 13.1441 6.71053 13.2895 6.71053Z" fill="black"/>
</svg>
