<svg viewBox="0 0 24 24" fill="#222F3D">
<path d="M10 2.5C5.86445 2.5 2.5 5.86445 2.5 10C2.5 14.1355 5.86445 17.5 10 17.5C14.1355 17.5 17.5 14.1355 17.5 10C17.5 5.86445 14.1355 2.5 10 2.5ZM13.125 14.009L11.0098 11.8938C10.3028 12.3802 9.43954 12.585 8.58941 12.4677C7.73927 12.3505 6.96363 11.9198 6.41469 11.2602C5.86574 10.6005 5.58314 9.75955 5.62232 8.90227C5.6615 8.04499 6.01964 7.23329 6.62647 6.62647C7.23329 6.01964 8.04499 5.6615 8.90227 5.62232C9.75955 5.58314 10.6005 5.86574 11.2602 6.41469C11.9198 6.96363 12.3505 7.73927 12.4677 8.58941C12.585 9.43954 12.3802 10.3028 11.8938 11.0098L14.009 13.125L13.125 14.009Z" fill="black"/>
<path d="M9.0625 11.25C10.2706 11.25 11.25 10.2706 11.25 9.0625C11.25 7.85438 10.2706 6.875 9.0625 6.875C7.85438 6.875 6.875 7.85438 6.875 9.0625C6.875 10.2706 7.85438 11.25 9.0625 11.25Z" fill="black"/>
</svg>
